<svg viewBox="0 0 172.09 36.84" xmlns="http://www.w3.org/2000/svg"><g fill="none"><path d="m0 36h172.1"/><path d="m0 0h41.57v36.84h-41.57z"/><path d="m99.18 0h41.57v36.84h-41.57z"/></g><path d="m37.52.64h30.46v8.81h-10.14v26.55h-10.34v-26.55h-9.98z"/><path d="m70.84.64h10.34v26.51h15.13v8.85h-25.47z"/><path d="m140.54 24.73h10.58c.35 2.81 2.53 4.15 5.94 4.15 2 0 4.5-.79 4.5-2.92s-2.38-2.67-6.73-3.76c-5.93-1.48-13.1-3.51-13.1-11 0-8.13 6.62-11.2 14.59-11.2 7.31 0 14 3.07 14.19 10.78h-10.24c-.29-1.93-1.68-3.16-4.5-3.16-2.27 0-3.86 1-3.86 2.47 0 2.08 3 2.37 8.31 3.66 5.94 1.43 11.87 3.76 11.87 11.27 0 7.72-6.87 11.82-15.23 11.82-9.2 0-16.17-4-16.32-12.11"/><path d="m26.4.65v-.01h-11.24v.01l15.17 35.35h11.24z"/><path d="m0 35.99.01.01h11.23l-5.62-13.11z"/><path d="m7.58 18.32 7.59 17.68h11.24l-13.21-30.78z"/><path d="m0 0h41.57v36.84h-41.57z" fill="none"/><g transform="translate(99.18)"><path d="m30.32 36h11.25l-13.46-31.16a8 8 0 0 0 -14.67 0l-13.44 31.16h25.85v-10.34h-10.14l5.07-11.75z"/><path d="m0 0h41.57v36.84h-41.57z" fill="none"/></g></svg>